<svg
xmlns="http://www.w3.org/2000/svg"
width="400"
height="400"
id="icon"
>
  <defs>
    <style type="text/css">
    #c1 {
      fill: none;
    }
    #c2 {
      fill: #fff;
    }
    #brush {
      fill: url(#hatching);
      stroke: #fff;
      stroke-width: 2px;
    }
    </style>
    <pattern id="hatching" x="0" y="0" width="5" height="25" patternTransform="rotate(-45)" patternUnits="userSpaceOnUse" viewBox="0 0 5 5">
            <rect id="c1" x="0" y="0" width="15" height="15"/>
            <rect id="c2" width="5" height="1"/>
        </pattern>
  </defs>
  <path
    id="brush"
    d="
      M 80,120
      Q 70,70 80,50
        80,50 90,30
        100,10 140,30
        190,40 240,30
        350,0 350,150
        350,200 380,220
        400,240 360,260
        350,300 310,380
        300,390 290,385
      L 250,370
        230,340
      Q 290,240 200,180
        180,170 140,180
        125,185 125,175
        125,170 140,165
        195,145 230,180
        300,240 250,330
        190,390 130,350
        30,280 100,200
        105,195 110,200
        110,205 110,205
        70,270 110,310
        190,390 270,290
        290,260 290,240
      L 50,290
        20,275
      Q 20,230 75,125
        90,130 145,150
      L 190,125
        270,160
        280,205
        300,215
        305,205
        350,225
        345,235
        360,243
        365,245
        345,245
        302,227
        295,240
        350,265
        355,255
      Q 400,240 350,200
        330,180 340,120
        350,40 300,30
        200,60 140,40
        130,35 100,20
        60,10 70,50
        90,100 60,130
        40,160 70,150
        70,155 75,155
        80,155 80,150
        80,145 75,145
        70,145 70,150
        85,140 80,120
      Z
    "
  >
  </path>
</svg>